<svg width="113" height="105" viewBox="0 0 113 105" fill="none" xmlns="http://www.w3.org/2000/svg">
  <path d="M47.6949 76.7403C47.1563 63.2089 46.6342 49.6769 46.1009 36.1459C51.9928 30.5299 57.8922 24.9225 63.7925 19.3173C63.9635 20.4308 63.9291 21.5612 63.9872 22.6835C64.0372 24.2745 64.1356 25.8633 64.1539 27.456C60.209 31.1803 56.2823 34.9229 52.3539 38.6649C52.4249 41.3577 52.5494 44.0486 52.674 46.7395C54.6757 44.9375 56.5914 43.0423 58.5461 41.1902C60.5325 39.3273 62.4799 37.4213 64.4878 35.5817C64.6118 38.3052 64.7165 41.0317 64.8035 43.7566C60.8661 47.4985 56.9237 51.2348 52.9937 54.9852C53.1645 60.111 53.3846 65.2368 53.5858 70.3641C53.5918 70.7036 53.5813 71.0437 53.5692 71.3832C52.3898 72.4477 51.2629 73.5717 50.1035 74.6589C49.3321 75.4189 48.5007 76.12 47.7836 76.9348C50.3421 78.0247 52.9435 79.0136 55.4953 80.1245C54.2149 79.6429 52.9657 79.0755 51.6831 78.6039C50.4812 78.2744 49.4354 77.5563 48.2325 77.2337C48.0013 77.1435 47.6333 77.0669 47.6949 76.7403Z" fill="#6E57C8" />
  <path d="M52.6739 46.7395C52.5493 44.0486 52.4247 41.3577 52.3538 38.6649C54.4269 39.483 56.4964 40.3142 58.546 41.1902C56.5913 43.0423 54.6756 44.9375 52.6739 46.7395Z" fill="#2C7BA1" />
  <path d="M63.7926 19.3173L63.7802 19.2266C66.4156 20.253 69.0198 21.356 71.6472 22.3974C71.7649 25.1456 71.9123 27.8968 71.9431 30.648C69.3599 29.5517 66.7404 28.5445 64.154 27.456C64.1356 25.8633 64.0373 24.2745 63.9873 22.6835C63.9292 21.5612 63.9636 20.4308 63.7926 19.3173Z" fill="#2C7BA1" />
  <path d="M53.5858 70.3641C53.3846 65.2368 53.1646 60.111 52.9938 54.9852C54.9459 55.787 56.906 56.5737 58.8594 57.3724C59.5117 57.6282 60.1441 57.987 60.8551 58.0443C60.758 58.5752 60.8204 59.1126 60.8424 59.6463C61.0202 64.1536 61.198 68.6609 61.3742 73.1676C61.3957 73.6756 61.4595 74.1917 61.3258 74.6913L61.2311 74.6328C60.874 74.404 60.508 74.188 60.1154 74.0285C57.9265 73.1634 55.7504 72.2671 53.5693 71.3832C53.5814 71.0437 53.5919 70.7036 53.5858 70.3641Z" fill="#2C7BA1" />
  <path d="M64.4878 35.5817L64.54 35.5428C64.9976 35.6994 65.4455 35.8886 65.8913 36.0788C66.0902 35.9882 66.2913 35.8968 66.4872 35.7959C66.3844 35.8963 66.1812 36.0962 66.08 36.1973C68.1399 37.0702 70.2237 37.889 72.2959 38.7359C72.3977 41.474 72.538 44.2113 72.6027 46.9508C70.0182 45.8485 67.4007 44.8276 64.8035 43.7566C64.7165 41.0317 64.6118 38.3052 64.4878 35.5817Z" fill="#2C7BA1" />
  <path d="M52.3539 38.6649C56.2823 34.9229 60.209 31.1803 64.1539 27.456C66.7403 28.5445 69.3598 29.5517 71.943 30.648C70.0983 32.337 68.3347 34.1135 66.4872 35.7959C66.2913 35.8968 66.0902 35.9882 65.8913 36.0788C65.4455 35.8886 64.9976 35.6994 64.54 35.5428L64.4878 35.5817C62.4799 37.4213 60.5324 39.3273 58.5461 41.1902C56.4965 40.3142 54.427 39.483 52.3539 38.6649Z" fill="#283885" />
  <path d="M52.9936 54.9852C56.9236 51.2348 60.866 47.4985 64.8034 43.7566C67.4006 44.8276 70.0181 45.8485 72.6026 46.9508C68.7527 50.5534 64.9565 54.2123 61.1263 57.8338C61.0576 57.8861 60.922 57.9914 60.8549 58.0443C60.1439 57.987 59.5115 57.6282 58.8592 57.3724C56.9058 56.5738 54.9457 55.787 52.9936 54.9852Z" fill="#283885" />
  <path d="M47.7835 76.9348C48.5007 76.12 49.332 75.4189 50.1034 74.6589C51.2628 73.5717 52.3898 72.4477 53.5691 71.3832C55.7503 72.2671 57.9264 73.1634 60.1152 74.0285C60.5078 74.188 60.8738 74.404 61.231 74.6328C59.3481 76.4922 57.3969 78.2819 55.4952 80.1245C52.9434 79.0136 50.342 78.0247 47.7835 76.9348Z" fill="#283885" />
</svg>